<svg xmlns="http://www.w3.org/2000/svg" xmlns:xlink="http://www.w3.org/1999/xlink" viewBox="145 75 1055 658" preserveAspectRatio="xMidYMid meet"><defs><g/></defs><g fill="#ffffff" fill-opacity="1"><g transform="translate(323.475254, 612.20366)"><g><path d="M 96.421875 1.578125 C 80.242188 1.578125 64.851562 -1.203125 50.25 -6.765625 C 35.65625 -12.335938 24.257812 -19.535156 16.0625 -28.359375 L 23.3125 -40.328125 C 31.082031 -32.140625 41.53125 -25.472656 54.65625 -20.328125 C 67.789062 -15.179688 81.609375 -12.609375 96.109375 -12.609375 C 117.109375 -12.609375 132.960938 -16.597656 143.671875 -24.578125 C 154.390625 -32.554688 159.75 -42.953125 159.75 -55.765625 C 159.75 -65.640625 156.910156 -73.515625 151.234375 -79.390625 C 145.566406 -85.273438 138.53125 -89.789062 130.125 -92.9375 C 121.726562 -96.09375 110.390625 -99.351562 96.109375 -102.71875 C 79.929688 -106.707031 66.957031 -110.59375 57.1875 -114.375 C 47.414062 -118.15625 39.117188 -123.984375 32.296875 -131.859375 C 25.472656 -139.742188 22.0625 -150.300781 22.0625 -163.53125 C 22.0625 -174.25 24.894531 -184.070312 30.5625 -193 C 36.238281 -201.925781 44.90625 -209.015625 56.5625 -214.265625 C 68.21875 -219.515625 82.765625 -222.140625 100.203125 -222.140625 C 112.378906 -222.140625 124.347656 -220.351562 136.109375 -216.78125 C 147.878906 -213.207031 158.070312 -208.378906 166.6875 -202.296875 L 160.703125 -189.375 C 151.878906 -195.46875 142.160156 -200.085938 131.546875 -203.234375 C 120.941406 -206.390625 110.492188 -207.96875 100.203125 -207.96875 C 79.828125 -207.96875 64.382812 -203.867188 53.875 -195.671875 C 43.375 -187.484375 38.125 -176.875 38.125 -163.84375 C 38.125 -153.976562 40.957031 -146.101562 46.625 -140.21875 C 52.300781 -134.332031 59.335938 -129.8125 67.734375 -126.65625 C 76.140625 -123.507812 87.59375 -120.148438 102.09375 -116.578125 C 118.269531 -112.585938 131.1875 -108.703125 140.84375 -104.921875 C 150.507812 -101.140625 158.753906 -95.414062 165.578125 -87.75 C 172.410156 -80.082031 175.828125 -69.738281 175.828125 -56.71875 C 175.828125 -46 172.9375 -36.226562 167.15625 -27.40625 C 161.375 -18.582031 152.5 -11.546875 140.53125 -6.296875 C 128.5625 -1.046875 113.859375 1.578125 96.421875 1.578125 Z M 96.421875 1.578125 "/></g></g></g><g fill="#ffffff" fill-opacity="1"><g transform="translate(521.666636, 612.20366)"><g><path d="M 172.359375 -78.453125 L 30.875 -78.453125 C 31.300781 -65.640625 34.554688 -54.242188 40.640625 -44.265625 C 46.734375 -34.285156 54.976562 -26.566406 65.375 -21.109375 C 75.78125 -15.648438 87.492188 -12.921875 100.515625 -12.921875 C 111.222656 -12.921875 121.144531 -14.863281 130.28125 -18.75 C 139.425781 -22.632812 147.046875 -28.359375 153.140625 -35.921875 L 162.265625 -25.515625 C 155.128906 -16.910156 146.148438 -10.296875 135.328125 -5.671875 C 124.515625 -1.046875 112.804688 1.265625 100.203125 1.265625 C 83.816406 1.265625 69.21875 -2.304688 56.40625 -9.453125 C 43.59375 -16.597656 33.5625 -26.472656 26.3125 -39.078125 C 19.0625 -51.679688 15.4375 -66.066406 15.4375 -82.234375 C 15.4375 -98.203125 18.847656 -112.539062 25.671875 -125.25 C 32.503906 -137.957031 41.90625 -147.878906 53.875 -155.015625 C 65.851562 -162.160156 79.300781 -165.734375 94.21875 -165.734375 C 109.125 -165.734375 122.507812 -162.210938 134.375 -155.171875 C 146.25 -148.140625 155.597656 -138.320312 162.421875 -125.71875 C 169.253906 -113.113281 172.671875 -98.832031 172.671875 -82.875 Z M 94.21875 -151.875 C 82.664062 -151.875 72.265625 -149.300781 63.015625 -144.15625 C 53.773438 -139.007812 46.367188 -131.757812 40.796875 -122.40625 C 35.234375 -113.0625 32.03125 -102.507812 31.1875 -90.75 L 157.234375 -90.75 C 156.597656 -102.507812 153.441406 -113.007812 147.765625 -122.25 C 142.097656 -131.5 134.644531 -138.75 125.40625 -144 C 116.164062 -149.25 105.769531 -151.875 94.21875 -151.875 Z M 94.21875 -151.875 "/></g></g></g><g fill="#ffffff" fill-opacity="1"><g transform="translate(716.076887, 612.20366)"><g><path d="M 115.015625 -10.390625 C 111.015625 -6.609375 106.019531 -3.71875 100.03125 -1.71875 C 94.050781 0.269531 87.804688 1.265625 81.296875 1.265625 C 67.015625 1.265625 55.984375 -2.671875 48.203125 -10.546875 C 40.429688 -18.429688 36.546875 -29.410156 36.546875 -43.484375 L 36.546875 -150.9375 L 6.296875 -150.9375 L 6.296875 -164.484375 L 36.546875 -164.484375 L 36.546875 -200.40625 L 52.3125 -200.40625 L 52.3125 -164.484375 L 104.609375 -164.484375 L 104.609375 -150.9375 L 52.3125 -150.9375 L 52.3125 -45.0625 C 52.3125 -34.34375 54.882812 -26.195312 60.03125 -20.625 C 65.175781 -15.0625 72.789062 -12.28125 82.875 -12.28125 C 93.164062 -12.28125 101.671875 -15.328125 108.390625 -21.421875 Z M 115.015625 -10.390625 "/></g></g></g><g fill="#ffffff" fill-opacity="1"><g transform="translate(847.784373, 612.20366)"><g><path d="M 115.015625 -10.390625 C 111.015625 -6.609375 106.019531 -3.71875 100.03125 -1.71875 C 94.050781 0.269531 87.804688 1.265625 81.296875 1.265625 C 67.015625 1.265625 55.984375 -2.671875 48.203125 -10.546875 C 40.429688 -18.429688 36.546875 -29.410156 36.546875 -43.484375 L 36.546875 -150.9375 L 6.296875 -150.9375 L 6.296875 -164.484375 L 36.546875 -164.484375 L 36.546875 -200.40625 L 52.3125 -200.40625 L 52.3125 -164.484375 L 104.609375 -164.484375 L 104.609375 -150.9375 L 52.3125 -150.9375 L 52.3125 -45.0625 C 52.3125 -34.34375 54.882812 -26.195312 60.03125 -20.625 C 65.175781 -15.0625 72.789062 -12.28125 82.875 -12.28125 C 93.164062 -12.28125 101.671875 -15.328125 108.390625 -21.421875 Z M 115.015625 -10.390625 "/></g></g></g><g fill="#ffffff" fill-opacity="1"><g transform="translate(979.491858, 612.20366)"><g><path d="M 33.40625 -233.796875 L 49.15625 -233.796875 L 49.15625 0 L 33.40625 0 Z M 33.40625 -233.796875 "/></g></g></g><g fill="#ffffff" fill-opacity="1"><g transform="translate(1068.032046, 612.20366)"><g><path d="M 48.53125 -128.5625 C 53.570312 -140.53125 61.445312 -149.71875 72.15625 -156.125 C 82.863281 -162.53125 95.890625 -165.734375 111.234375 -165.734375 L 111.234375 -150.296875 L 107.453125 -150.609375 C 89.171875 -150.609375 74.882812 -144.882812 64.59375 -133.4375 C 54.300781 -121.988281 49.15625 -106.078125 49.15625 -85.703125 L 49.15625 0 L 33.40625 0 L 33.40625 -164.484375 L 48.53125 -164.484375 Z M 48.53125 -128.5625 "/></g></g></g><path stroke-linecap="butt" transform="matrix(-0.00742815, -0.749963, 0.749963, -0.00742815, 162.25674, 717.570632)" fill="none" stroke-linejoin="miter" d="M -0.000789392 18.002306 L 525.58234 17.999456 " stroke="#ff751f" stroke-width="36" stroke-opacity="1" stroke-miterlimit="4"/><path stroke-linecap="butt" transform="matrix(-0.75, 0, 0, -0.75, 632.592454, 722.643272)" fill="none" stroke-linejoin="miter" d="M -0.00172747 17.998321 L 625.925387 17.998321 " stroke="#ff751f" stroke-width="36" stroke-opacity="1" stroke-miterlimit="4"/><path stroke-linecap="butt" transform="matrix(0.53033, -0.53033, 0.53033, 0.53033, 158.470721, 321.834731)" fill="none" stroke-linejoin="miter" d="M 0.000686656 17.997357 L 444.597779 18.00104 " stroke="#ff751f" stroke-width="36" stroke-opacity="1" stroke-miterlimit="4"/><path stroke-linecap="butt" transform="matrix(0.53033, 0.53033, -0.53033, 0.53033, 397.486246, 86.109836)" fill="none" stroke-linejoin="miter" d="M 0.00148356 17.999407 L 444.491773 17.999407 " stroke="#ff751f" stroke-width="36" stroke-opacity="1" stroke-miterlimit="4"/></svg>
